{
  "accessors": [
    {
      "bufferView": 3,
      "componentType": 5126,
      "count": 2211,
      "max": [
        5.826600074768066,
        8.988300323486328,
        2.4821999073028564
      ],
      "min": [
        -5.828400135040283,
        0.0009002761798910797,
        -1.7297999858856201
      ],
      "type": "VEC3"
    },
    {
      "bufferView": 3,
      "byteOffset": 26532,
      "componentType": 5126,
      "count": 2211,
      "max": [
        1.0,
        1.0,
        1.0
      ],
      "min": [
        -1.0,
        -1.0,
        -1.0
      ],
      "type": "VEC3"
    },
    {
      "bufferView": 2,
      "componentType": 5126,
      "count": 2211,
      "max": [
        1.7848999500274658,
        1.6024000644683838
      ],
      "min": [
        -1.9249999523162842,
        -0.9998999834060669
      ],
      "type": "VEC2"
    },
    {
      "bufferView": 1,
      "componentType": 5125,
      "count": 7494,
      "type": "SCALAR"
    },
    {
      "bufferView": 5,
      "componentType": 5126,
      "count": 42,
      "max": [
        1.0,
        6.339205165163024e-17,
        1.0,
        0.0,
        0.0,
        1.0,
        0.048249028623104095,
        0.0,
        0.8762151598930359,
        0.48191890120506287,
        1.0,
        0.0,
        5.076010704040527,
        0.15636591613292694,
        1.062000036239624,
        1.0
      ],
      "min": [
        2.950902315195147e-17,
        0.0,
        -1.0,
        0.0,
        -0.9993775486946106,
        -0.03527098149061203,
        -0.1421201378107071,
        0.0,
        -0.07124797254800797,
        -0.9993775486946106,
        2.950903969556372e-17,
        0.0,
        -5.061001777648926,
        -8.370489120483398,
        -1.335561990737915,
        1.0
      ],
      "type": "MAT4"
    },
    {
      "bufferView": 0,
      "componentType": 5123,
      "count": 2211,
      "type": "VEC4"
    },
    {
      "bufferView": 4,
      "componentType": 5126,
      "count": 2211,
      "max": [
        1.0,
        0.0,
        0.0,
        0.0
      ],
      "min": [
        1.0,
        0.0,
        0.0,
        0.0
      ],
      "type": "VEC4"
    }
  ],
  "asset": {
    "extras": {
      "author": "Nick Bob (https://sketchfab.com/NickBob)",
      "license": "CC-BY-4.0 (http://creativecommons.org/licenses/by/4.0/)",
      "source": "https://sketchfab.com/3d-models/spongebob-bfbb-hd-8cab6ffc051749c7a3f50e90e7cd1e03",
      "title": "SpongeBob BFBB (HD!)"
    },
    "generator": "Sketchfab-14.48.0",
    "version": "2.0"
  },
  "bufferViews": [
    {
      "buffer": 0,
      "byteLength": 17688,
      "byteStride": 8,
      "name": "shortBufferViews",
      "target": 34962
    },
    {
      "buffer": 0,
      "byteLength": 29976,
      "byteOffset": 17688,
      "name": "floatBufferViews",
      "target": 34963
    },
    {
      "buffer": 0,
      "byteLength": 17688,
      "byteOffset": 47664,
      "byteStride": 8,
      "name": "floatBufferViews",
      "target": 34962
    },
    {
      "buffer": 0,
      "byteLength": 53064,
      "byteOffset": 65352,
      "byteStride": 12,
      "name": "floatBufferViews",
      "target": 34962
    },
    {
      "buffer": 0,
      "byteLength": 35376,
      "byteOffset": 118416,
      "byteStride": 16,
      "name": "floatBufferViews",
      "target": 34962
    },
    {
      "buffer": 0,
      "byteLength": 2688,
      "byteOffset": 153792,
      "name": "floatBufferViews"
    }
  ],
  "buffers": [
    {
      "byteLength": 156480,
      "uri": "scene.bin"
    }
  ],
  "images": [
    {
      "uri": "textures/chr_sb05_png_baseColor.jpeg"
    }
  ],
  "materials": [
    {
      "doubleSided": true,
      "name": "chr_sb05_png",
      "pbrMetallicRoughness": {
        "baseColorTexture": {
          "index": 0
        },
        "metallicFactor": 0.0,
        "roughnessFactor": 0.6
      }
    }
  ],
  "meshes": [
    {
      "name": "VisualSceneNode43_chr_sb05_png_0",
      "primitives": [
        {
          "attributes": {
            "JOINTS_0": 5,
            "NORMAL": 1,
            "POSITION": 0,
            "TEXCOORD_0": 2,
            "TEXCOORD_1": 2,
            "TEXCOORD_2": 2,
            "TEXCOORD_3": 2,
            "TEXCOORD_4": 2,
            "TEXCOORD_5": 2,
            "TEXCOORD_6": 2,
            "TEXCOORD_7": 2,
            "TEXCOORD_8": 2,
            "TEXCOORD_9": 2,
            "WEIGHTS_0": 6
          },
          "indices": 3,
          "material": 0,
          "mode": 4
        }
      ]
    }
  ],
  "nodes": [
    {
      "children": [
        1
      ],
      "matrix": [
        1.0,
        0.0,
        0.0,
        0.0,
        0.0,
        2.220446049250313e-16,
        -1.0,
        0.0,
        0.0,
        1.0,
        2.220446049250313e-16,
        0.0,
        0.0,
        0.0,
        0.0,
        1.0
      ],
      "name": "Sketchfab_model"
    },
    {
      "children": [
        2
      ],
      "matrix": [
        0.009999999776482582,
        0.0,
        0.0,
        0.0,
        0.0,
        0.0,
        0.009999999776482582,
        0.0,
        0.0,
        -0.009999999776482582,
        0.0,
        0.0,
        0.0,
        0.0,
        0.0,
        1.0
      ],
      "name": "f6b29d22c0474387b6e9224c2627822c.fbx"
    },
    {
      "children": [
        3
      ],
      "name": "RootNode"
    },
    {
      "children": [
        4
      ],
      "name": "VisualSceneNode1"
    },
    {
      "children": [
        5,
        48,
        47
      ],
      "name": "Object_4"
    },
    {
      "children": [
        6
      ],
      "name": "_rootJoint"
    },
    {
      "children": [
        7,
        37,
        39,
        43
      ],
      "name": "VisualSceneNode2_01",
      "translation": [
        0.0,
        3.2687699794769287,
        0.11023300141096115
      ]
    },
    {
      "children": [
        8,
        18,
        19,
        21,
        29
      ],
      "name": "VisualSceneNode3_02",
      "translation": [
        0.0,
        0.7889789938926697,
        -0.018019000068306923
      ]
    },
    {
      "children": [
        9,
        10,
        11,
        12,
        13,
        14,
        15,
        16,
        17
      ],
      "name": "VisualSceneNode4_03",
      "translation": [
        0.0,
        1.4139800071716309,
        0.054058000445365906
      ]
    },
    {
      "name": "VisualSceneNode5_04",
      "translation": [
        0.0,
        2.8987600803375244,
        -0.45048999786376953
      ]
    },
    {
      "name": "VisualSceneNode6_05",
      "translation": [
        0.0,
        -0.008448000065982342,
        1.1892900466918945
      ]
    },
    {
      "name": "VisualSceneNode7_06",
      "translation": [
        0.0,
        0.5646399855613708,
        1.0991899967193604
      ]
    },
    {
      "name": "VisualSceneNode8_07",
      "translation": [
        0.9269999861717224,
        1.497879981994629,
        0.1599860042333603
      ]
    },
    {
      "name": "VisualSceneNode9_08",
      "rotation": [
        0.07124105840921402,
        0.0,
        0.0,
        0.9974592328071594
      ],
      "scale": [
        1.0,
        0.9999995231628418,
        0.9999995231628418
      ],
      "translation": [
        0.9269999861717224,
        1.497879981994629,
        0.1599860042333603
      ]
    },
    {
      "name": "VisualSceneNode10_09",
      "rotation": [
        -0.02413153648376465,
        -0.0,
        0.0,
        0.999708890914917
      ],
      "scale": [
        1.0,
        0.9999997019767761,
        0.9999997019767761
      ],
      "translation": [
        0.9269999861717224,
        1.497879981994629,
        0.1599860042333603
      ]
    },
    {
      "name": "VisualSceneNode11_010",
      "translation": [
        -0.9257109761238098,
        1.497879981994629,
        0.1599860042333603
      ]
    },
    {
      "name": "VisualSceneNode12_011",
      "rotation": [
        0.07124105840921402,
        0.0,
        0.0,
        0.9974592328071594
      ],
      "scale": [
        1.0,
        0.9999995231628418,
        0.9999995231628418
      ],
      "translation": [
        -0.9257109761238098,
        1.497879981994629,
        0.1599860042333603
      ]
    },
    {
      "name": "VisualSceneNode13_012",
      "rotation": [
        -0.02413153648376465,
        -0.0,
        0.0,
        0.999708890914917
      ],
      "scale": [
        1.0,
        0.9999997019767761,
        0.9999997019767761
      ],
      "translation": [
        -0.9257109761238098,
        1.497879981994629,
        0.1599860042333603
      ]
    },
    {
      "name": "VisualSceneNode14_013",
      "translation": [
        0.0,
        0.6290709972381592,
        1.0777699947357178
      ]
    },
    {
      "children": [
        20
      ],
      "name": "VisualSceneNode15_014",
      "translation": [
        0.0,
        1.0784000158309937,
        0.08229900151491165
      ]
    },
    {
      "name": "VisualSceneNode16_015",
      "translation": [
        0.0,
        0.006041999906301498,
        0.48971599340438843
      ]
    },
    {
      "children": [
        22,
        28
      ],
      "name": "VisualSceneNode17_016",
      "translation": [
        2.495029926300049,
        0.11318500339984894,
        -0.011101000010967255
      ]
    },
    {
      "children": [
        23
      ],
      "name": "VisualSceneNode18_017",
      "translation": [
        1.2858200073242188,
        0.0,
        -0.007079000119119883
      ]
    },
    {
      "children": [
        24,
        25,
        26,
        27
      ],
      "name": "VisualSceneNode19_018",
      "translation": [
        0.7144370079040527,
        0.0,
        0.007079000119119883
      ]
    },
    {
      "name": "VisualSceneNode20_019",
      "translation": [
        0.31499001383781433,
        -0.07044199854135513,
        0.2690339982509613
      ]
    },
    {
      "name": "VisualSceneNode21_020",
      "translation": [
        0.5657150149345398,
        0.11177700012922287,
        0.1486770063638687
      ]
    },
    {
      "name": "VisualSceneNode22_00",
      "translation": [
        0.5623180270195007,
        0.11177700012922287,
        -0.024083999916911125
      ]
    },
    {
      "name": "VisualSceneNode23_021",
      "translation": [
        0.537106990814209,
        0.11177700012922287,
        -0.2101680040359497
      ]
    },
    {
      "name": "VisualSceneNode24_022",
      "translation": [
        0.09911700338125229,
        0.0,
        -0.014158999547362328
      ]
    },
    {
      "children": [
        30,
        36
      ],
      "name": "VisualSceneNode25_023",
      "translation": [
        -2.466549873352051,
        0.13124899566173553,
        -0.03489699959754944
      ]
    },
    {
      "children": [
        31
      ],
      "name": "VisualSceneNode26_024",
      "translation": [
        -1.2924699783325195,
        -0.02545499987900257,
        0.005723999813199043
      ]
    },
    {
      "children": [
        32,
        33,
        34,
        35
      ],
      "name": "VisualSceneNode27_025",
      "translation": [
        -0.716929018497467,
        0.008484000340104103,
        0.005723999813199043
      ]
    },
    {
      "name": "VisualSceneNode28_026",
      "translation": [
        -0.3482170104980469,
        -0.0668020024895668,
        0.2633399963378906
      ]
    },
    {
      "name": "VisualSceneNode29_027",
      "translation": [
        -0.5428140163421631,
        0.13809800148010254,
        0.15456900000572205
      ]
    },
    {
      "name": "VisualSceneNode30_028",
      "translation": [
        -0.6000620126724243,
        0.13809800148010254,
        0.0
      ]
    },
    {
      "name": "VisualSceneNode31_029",
      "translation": [
        -0.5428140163421631,
        0.13809800148010254,
        -0.19464300572872162
      ]
    },
    {
      "name": "VisualSceneNode32_030",
      "translation": [
        -0.10877099633216858,
        0.0,
        -0.005723999813199043
      ]
    },
    {
      "children": [
        38
      ],
      "name": "VisualSceneNode33_031",
      "translation": [
        0.0,
        0.39092499017715454,
        1.0381499528884888
      ]
    },
    {
      "name": "VisualSceneNode34_032",
      "translation": [
        0.0,
        -0.634896993637085,
        0.008353999815881252
      ]
    },
    {
      "children": [
        40
      ],
      "name": "VisualSceneNode35_033",
      "rotation": [
        0.5087413787841797,
        -0.4911031424999237,
        0.5087413787841797,
        -0.4911031424999237
      ],
      "scale": [
        1.000000238418579,
        1.000000238418579,
        1.0
      ],
      "translation": [
        1.062000036239624,
        -0.5189769864082336,
        -0.05081799998879433
      ]
    },
    {
      "children": [
        41
      ],
      "name": "VisualSceneNode36_034",
      "rotation": [
        -6.4825170635789e-33,
        5.82593661240345e-33,
        0.05326814204454422,
        0.9985803365707397
      ],
      "scale": [
        0.9999999403953552,
        0.9999999403953552,
        1.0
      ],
      "translation": [
        1.3305699825286865,
        0.0,
        -2.220446049250313e-16
      ]
    },
    {
      "children": [
        42
      ],
      "name": "VisualSceneNode37_035",
      "rotation": [
        0.8421003222465515,
        -0.5393209457397461,
        -3.3023882319534246e-17,
        5.1563772556260874e-17
      ],
      "scale": [
        1.0000003576278687,
        1.0000003576278687,
        1.0
      ],
      "translation": [
        0.7936869859695435,
        0.021995000541210175,
        0.0
      ]
    },
    {
      "name": "VisualSceneNode38_036",
      "rotation": [
        -0.17591488361358643,
        0.6848751306533813,
        0.17591488361358643,
        0.6848751306533813
      ],
      "scale": [
        1.0,
        1.0000001192092896,
        1.0000001192092896
      ],
      "translation": [
        0.7141619920730591,
        0.0,
        0.0
      ]
    },
    {
      "children": [
        44
      ],
      "name": "VisualSceneNode39_037",
      "rotation": [
        0.5087413787841797,
        -0.4911031424999237,
        0.5087413787841797,
        -0.4911031424999237
      ],
      "scale": [
        1.000000238418579,
        1.000000238418579,
        1.0
      ],
      "translation": [
        -1.060670018196106,
        -0.5189769864082336,
        -0.05081799998879433
      ]
    },
    {
      "children": [
        45
      ],
      "name": "VisualSceneNode40_038",
      "rotation": [
        -6.4825170635789e-33,
        5.82593661240345e-33,
        0.05326814204454422,
        0.9985803365707397
      ],
      "scale": [
        0.9999999403953552,
        0.9999999403953552,
        1.0
      ],
      "translation": [
        1.3305699825286865,
        0.0,
        -2.220446049250313e-16
      ]
    },
    {
      "children": [
        46
      ],
      "name": "VisualSceneNode41_039",
      "rotation": [
        0.8421003222465515,
        -0.5393209457397461,
        -3.3023882319534246e-17,
        5.1563772556260874e-17
      ],
      "scale": [
        1.0000003576278687,
        1.0000003576278687,
        1.0
      ],
      "translation": [
        0.7936869859695435,
        0.021995000541210175,
        0.0
      ]
    },
    {
      "name": "VisualSceneNode42_040",
      "rotation": [
        -0.17591488361358643,
        0.6848751306533813,
        0.17591488361358643,
        0.6848751306533813
      ],
      "scale": [
        1.0,
        1.0000001192092896,
        1.0000001192092896
      ],
      "translation": [
        0.7141609787940979,
        -1.1102230246251565e-16,
        0.0
      ]
    },
    {
      "matrix": [
        1.0,
        0.0,
        0.0,
        0.0,
        0.0,
        0.9999999742745229,
        1.0089591384598862e-09,
        0.0,
        0.0,
        -1.0089591384598862e-09,
        0.9999999742745229,
        0.0,
        0.0,
        2.7725035600667525e-07,
        3.550344018776741e-08,
        1.0
      ],
      "name": "Object_47"
    },
    {
      "mesh": 0,
      "name": "Object_48",
      "skin": 0
    }
  ],
  "samplers": [
    {
      "magFilter": 9729,
      "minFilter": 9987,
      "wrapS": 10497,
      "wrapT": 10497
    }
  ],
  "scene": 0,
  "scenes": [
    {
      "name": "Sketchfab_Scene",
      "nodes": [
        0
      ]
    }
  ],
  "skins": [
    {
      "inverseBindMatrices": 4,
      "joints": [
        5,
        6,
        7,
        8,
        9,
        10,
        11,
        12,
        13,
        14,
        15,
        16,
        17,
        18,
        19,
        20,
        21,
        22,
        23,
        24,
        25,
        26,
        27,
        28,
        29,
        30,
        31,
        32,
        33,
        34,
        35,
        36,
        37,
        38,
        39,
        40,
        41,
        42,
        43,
        44,
        45,
        46
      ],
      "skeleton": 5
    }
  ],
  "textures": [
    {
      "sampler": 0,
      "source": 0
    }
  ]
}
